<svg xmlns="http://www.w3.org/2000/svg" xmlns:xlink="http://www.w3.org/1999/xlink" version="1.1" id="Layer_1" x="0px" y="0px" viewBox="0 0 823 823" style="enable-background:new 0 0 823 823;" xml:space="preserve">
<g>

	<g>
		<path class="st5" d="M538,473.8l3.6,5.2c0,0,1.7,3.5,5.9,8.8c1.1,1.4,2.4,2.6,3.9,3.5c1.8,1.1,4.3,2.5,5.9,2.9    c2,0.4,2.4,3,0.7,3.8c-1.7,0.7-7.1-0.3-12.3-4.3c-5.2-3.9-2.8,6-1.9,9.7c0.8,3.6,2.8,15,1.9,16.2c-1.3,1.7-3.4,0.5-4.1-3.1    c-0.7-3.7-3.7-14.5-5.6-13.9c-1.9,0.5,2.5,19,2.5,19s1.6,3.8-0.6,4.5c-3.9,1.2-7.2-18.8-7.4-20.7c-0.2-1.3-2.3-0.8-2,0.6    c0.3,1.5,4.8,18.3,0.9,19.6c-3.1,1-2.8-16.4-5.7-19.4c-2.9-3,1.2,13.2-1.8,14c-1.1,0.3-2,0.4-3-9.3c-1-9.9,0.6-37,0.6-37l18.8,0.2    "/>
	</g>

	<g>
		<path class="st4" d="M348.1,679.9c0,0-6.3,25-1.6,20.5c4.6-4.5,21.6-44.4,21.6-44.4l-3.6-3.6L348.1,679.9z"/>
		<polygon class="st4" points="368,656 351.5,636.8 333,670.1 348.1,679.9   "/>
	</g>

	<path class="st11" d="M500.2,596.8H397c-4.8,0-8.7-3.9-8.7-8.7l0,0c0-4.8,3.9-8.7,8.7-8.7h103.1c4.8,0,8.7,3.9,8.7,8.7l0,0   C508.9,592.9,505,596.8,500.2,596.8z"/>
	<g>
		
			<rect x="467.2" y="658" transform="matrix(6.123234e-17 -1 1 6.123234e-17 -230.7718 1173.9272)" class="st4" width="8.8" height="88.8"/>
		<path class="st4" d="M435.4,705c0.8,4.6-2.3,8.9-6.9,9.6c-4.6,0.8-8.9-2.3-9.6-6.9c-0.8-4.6,2.3-8.9,6.9-9.6    C430.4,697.3,434.7,700.4,435.4,705z"/>
		<rect x="466.8" y="591.1" class="st4" width="8.8" height="110.4"/>
		<path class="st4" d="M524.2,705c0.8,4.6-2.3,8.9-6.9,9.6c-4.6,0.8-8.9-2.3-9.6-6.9c-0.8-4.6,2.3-8.9,6.9-9.6    C519.2,697.3,523.5,700.4,524.2,705z"/>
	</g>
	<path class="st11" d="M527.2,596.8h-97.4c-6.6,0-11.4-6.5-9.5-13l46.5-160.4c1.2-4.3,5.1-7.3,9.5-7.3h97.4c6.6,0,11.4,6.5,9.5,13   l-46.5,160.4C535.5,593.9,531.6,596.8,527.2,596.8z"/>
	<path class="st12" d="M513.8,596.8h-84.9c-6.6,0-11.4-6.5-9.5-13l46.5-160.4c1.2-4.3,5.1-7.3,9.5-7.3h84.9c6.6,0,11.4,6.5,9.5,13   l-46.5,160.4C522.1,593.9,518.2,596.8,513.8,596.8z"/>
	<path class="st11" d="M527.2,596.8H424c-4.8,0-8.7-3.9-8.7-8.7l0,0c0-4.8,3.9-8.7,8.7-8.7h103.1c4.8,0,8.7,3.9,8.7,8.7l0,0   C535.9,592.9,532,596.8,527.2,596.8z"/>
	<polygon class="st8" points="441.9,460.6 419,521.5 424.4,533.4 455.3,528 464.1,462.9  "/>
	<path class="st13" d="M455.8,431c0,0-18.1,9.5-22.1,40.7l23.9,13.1L455.8,431z"/>
	<path class="st13" d="M485,419.1l-28.5,12L434,531.2l75.2,29.6l40.1-114.2c0,0-6.5-23.8-44.1-29.9L485,419.1z"/>
	<path class="st5" d="M561,536.6c0-1.3-0.8-9.2-1.2-10.5l-12.4-79.3c-2.4-10.9-14.6-16.4-24.3-11c-7.2,4-10.4,12.5-7.6,20.2   l14.7,68.1L561,536.6z"/>
	<path class="st5" d="M544.1,519.7l-83.9-6.5L456,528l80.8,27.3c12.4,4.2,25.1-5.6,24.2-18.7l0,0   C560.4,527.6,553.2,520.4,544.1,519.7z"/>
	<path class="st13" d="M539,433.4c0,0,10.7,4.6,15.3,32.4l-37.8,11.6c0,0-24.7-27.7,1.7-46.2L539,433.4z"/>
	<path class="st5" d="M433.9,528.9c3.1,8.2,18.6,8.6,26.9,5.5c8.2-3.1,16.7-7.8,13.6-16.1c-3.1-8.2-16.8-13.1-25.8-11.1   C437.7,509.7,430.8,520.6,433.9,528.9z"/>
	<path class="st12" d="M479.6,540.1l-59.9-7.7l0.9-6.8l59.9,7.7c1.9,0.2,3.2,1.9,2.9,3.8l0,0C483.1,539,481.4,540.3,479.6,540.1z"/>
	<path class="st12" d="M427.6,533.4l-79.4-10.2c-4.6-0.6-8.2-4.1-8.8-8.7l-8.3-57.6c-0.7-5.1,3.6-9.5,8.7-8.8l72.9,9.4   c3.1,0.4,5.5,2.8,5.9,5.8L427.6,533.4z"/>
	<path class="st4" d="M332.7,685.5l-20.6,8.5l-13,1c-6,0.4-11,4.8-12.2,10.6l-0.6,2.7l70.6,8.8l1.4-28.4L332.7,685.5z"/>
	<polygon class="st5" points="358.3,688.7 365.2,657.8 339.7,654.3 332.7,685.5  "/>
	<path class="st4" d="M509.2,560.8c0,0-2,17.1-32.7,19.4h-73.8l-34.8,97.1l-36.6-5.9l36.6-142.6l83.9,9.3L509.2,560.8z"/>
	<path class="st3" d="M273.6,629.7l-22.1-3.3l-11.7-5.9c-5.4-2.7-11.9-1.5-16,2.8l-1.9,2l56,43.8l15.8-23.6L273.6,629.7z"/>
	<polygon class="st5" points="293.9,645.6 313.1,621.2 292.9,605.1 273.6,629.7  "/>
	<path class="st3" d="M434,531.2l-56.9-17c-2.4-0.7-4.7-1.6-7.1-2.4c-4.9-1.9-17.3-4.5-26.9,10.2c-12.3,18.9-61.6,89.9-61.6,89.9   l30.1,22.2l65.7-83.7c5.5-7.6,14.3-12.1,23.7-12.1l50.8-0.1L434,531.2z"/>
	<path class="st2" d="M507.2,387.9c1-1.9,18.6-33.3,2.5-41.2c0,0-2.1-16.6-20.6-14.8c-18.5,1.8-13.5,7.2-25.3,4.5   c-11.8-2.7-22.9,3.4-22,13.3c0.9,9.9,8.4,14.1,22,11.7c13.6-2.4,24.4-0.6,24.4-0.6l11.4,3.3L507.2,387.9z"/>
	<g>
		<path class="st5" d="M509.4,421.9L508,382l-27.6,9.8l2.2,32c0.5,7.4,4.6,13.2,12,12.7l2.3-0.1    C504.3,435.7,509.9,429.3,509.4,421.9z"/>
	</g>
	<path class="st8" d="M505.6,387.5c0,0,5.2,33.3-23.2,35.2l-1.3-15.8L505.6,387.5z"/>
	<path class="st5" d="M482.2,415.3l1,0c14.2-0.7,25.1-12.7,24.4-26.9l-1.4-29c-0.2-3.7-3.3-6.5-7-6.3l-33.8,1.6   c-6.5,0.3-11.6,5.9-11.3,12.4l1.1,23.7C456,405,468,415.9,482.2,415.3z"/>
	<path class="st5" d="M501.1,379.7c0.2,4.8,4.3,8.5,9.1,8.2c4.8-0.2,8.5-4.3,8.2-9.1c-0.2-4.8-4.3-8.5-9.1-8.2   C504.6,370.8,500.9,374.9,501.1,379.7z"/>
	<path class="st2" d="M497,356.5l1.7,32.3c0.2,2.9-1,5.9-3.5,7.5c-1.5,1.1-2.7,2.5-5.4,2.1c-7.7-1.1-4.1-6.8-19.8-6   c-14.3,0.8-13.2,8.7-13.2,8.7s2.8,15.1,22.4,15.8c19.6,0.7,29.4-11.7,27.1-28.2l-1.9-34.1L497,356.5z"/>
	<path class="st2" d="M455.1,362c0,0,9.1,1.4,22.4-1.8c13.2-3.3,23.7,7.4,23.7,7.4s2.8,4.9,3.5,4.8c0.7-0.1,4.7-1.7,4.7-1.7   l-0.2-14.9l-9.7-7.6l-26.9-1.1l-15.9,3.5L455.1,362z"/>
</g><style type="text/css">
	.st0{fill:#CCE9FF;}
	.st1{fill:#DBA17B;}
	.st2{fill:#FFBE55;}
	.st3{fill:#0E538C;}
	.st4{fill:#0B4870;}
	.st5{fill:#FFE3CA;}
	.st6{fill:#C68C6B;}
	.st7{fill:#FF957E;}
	.st8{fill:#FCD2B1;}
	.st9{fill:#FFD584;}
	.st10{fill:none;stroke:#FFECD3;stroke-width:0.1;stroke-miterlimit:10;}
	.st11{fill:#D3D3D3;}
	.st12{fill:#F2F2F2;}
	.st13{fill:#2A94F4;}
</style>

</svg>